<mxfile host="app.diagrams.net" modified="2023-09-22T13:21:33.600Z" agent="Mozilla/5.0 (Windows NT 10.0; Win64; x64; rv:109.0) Gecko/20100101 Firefox/117.0" version="21.7.4" etag="n7A1xSJDs3ZJXW0yXcSP" type="github">
  <diagram name="Page-1" id="jzdGhWoaBMtrBlc3ov5q">
    <mxGraphModel>
      <root>
        <mxCell id="0" />
        <mxCell id="1" parent="0" />
      </root>
    </mxGraphModel>
  </diagram>
</mxfile>
